STARTFONT 2.1
FONT -Monotype-Bookman Old Style-Regular-I-Normal--18-180-75-75-P-97-iso8859-9
SIZE 18 75 75
FONTBOUNDINGBOX 28 22 -4 -5

STARTPROPERTIES 24
FOUNDRY "Monotype"
FAMILY_NAME "Bookman Old Style"
WEIGHT_NAME "Regular"
SLANT "I"
SETWIDTH_NAME "Normal"
ADD_STYLE_NAME ""
PIXEL_SIZE 18
POINT_SIZE 180
RESOLUTION_X 75
RESOLUTION_Y 75
SPACING "P"
AVERAGE_WIDTH 97
CHARSET_REGISTRY "iso8859"
CHARSET_ENCODING "9"
FACE_NAME "Bookman Old Style Italic ISO Latin5"
_DEC_DEVICE_FONTNAMES "PS=bookmanoldstyle-it-lat5"
COPYRIGHT "Copyright (c) 1994 Monotype Typography Ltd."
CAP_HEIGHT 14
X_HEIGHT 10
WEIGHT 10
QUAD_WIDTH 14
DEFAULT_CHAR 160
FONT_DESCENT 5
FONT_ASCENT 17
ENDPROPERTIES

CHARS 191

STARTCHAR space
ENCODING 32
SWIDTH 300 0
DWIDTH 6 0
BBX 0 0 0 0
BITMAP
ENDCHAR

STARTCHAR exclam
ENCODING 33
SWIDTH 320 0
DWIDTH 6 0
BBX 4 14 2 0
BITMAP
30
30
30
30
30
20
60
60
60
40
40
00
C0
C0
ENDCHAR

STARTCHAR quotedbl
ENCODING 34
SWIDTH 360 0
DWIDTH 7 0
BBX 5 5 3 8
BITMAP
48
48
48
90
90
ENDCHAR

STARTCHAR numbersign
ENCODING 35
SWIDTH 600 0
DWIDTH 11 0
BBX 11 13 0 0
BITMAP
1980
1980
1980
1980
7FE0
1980
3300
3300
FFC0
3300
3300
3300
3300
ENDCHAR

STARTCHAR dollar
ENCODING 36
SWIDTH 620 0
DWIDTH 12 0
BBX 11 17 2 -2
BITMAP
0200
0200
1F40
32E0
6260
6220
7400
3C00
0F00
0780
09C0
88C0
C8C0
E980
5F00
1000
1000
ENDCHAR

STARTCHAR percent
ENCODING 37
SWIDTH 800 0
DWIDTH 15 0
BBX 13 13 3 0
BITMAP
3818
4410
C420
8440
8C80
8900
7270
0488
0588
0908
1118
2110
60E0
ENDCHAR

STARTCHAR ampersand
ENCODING 38
SWIDTH 820 0
DWIDTH 16 0
BBX 15 13 1 0
BITMAP
0780
0C40
0840
08C0
0580
0E1C
3308
6198
C0F0
C066
C0E2
61A6
3E1C
ENDCHAR

STARTCHAR quoteright
ENCODING 39
SWIDTH 280 0
DWIDTH 5 0
BBX 4 5 2 9
BITMAP
30
30
20
40
80
ENDCHAR

STARTCHAR parenleft
ENCODING 40
SWIDTH 280 0
DWIDTH 5 0
BBX 6 18 2 -4
BITMAP
04
08
10
30
20
60
60
40
C0
C0
C0
C0
C0
C0
C0
C0
40
40
ENDCHAR

STARTCHAR parenright
ENCODING 41
SWIDTH 280 0
DWIDTH 5 0
BBX 6 18 1 -4
BITMAP
08
08
0C
0C
0C
0C
0C
0C
0C
0C
08
18
18
10
30
20
40
80
ENDCHAR

STARTCHAR asterisk
ENCODING 42
SWIDTH 440 0
DWIDTH 8 0
BBX 7 7 3 6
BITMAP
18
18
D6
FE
28
6C
28
ENDCHAR

STARTCHAR plus
ENCODING 43
SWIDTH 600 0
DWIDTH 11 0
BBX 9 9 2 2
BITMAP
0800
0800
0800
0800
FF80
0800
0800
0800
0800
ENDCHAR

STARTCHAR comma
ENCODING 44
SWIDTH 300 0
DWIDTH 6 0
BBX 4 5 0 -3
BITMAP
30
30
20
40
80
ENDCHAR

STARTCHAR minus
ENCODING 45
SWIDTH 600 0
DWIDTH 11 0
BBX 9 1 3 6
BITMAP
FF80
ENDCHAR

STARTCHAR period
ENCODING 46
SWIDTH 300 0
DWIDTH 6 0
BBX 2 2 2 0
BITMAP
C0
C0
ENDCHAR

STARTCHAR slash
ENCODING 47
SWIDTH 600 0
DWIDTH 11 0
BBX 11 18 0 -4
BITMAP
0060
0040
00C0
0080
0180
0100
0300
0200
0600
0C00
0800
1800
1000
3000
2000
6000
4000
C000
ENDCHAR

STARTCHAR zero
ENCODING 48
SWIDTH 620 0
DWIDTH 12 0
BBX 11 13 2 0
BITMAP
0780
18C0
3060
3060
6060
6060
C060
C0C0
C0C0
C180
C180
6300
3C00
ENDCHAR

STARTCHAR one
ENCODING 49
SWIDTH 620 0
DWIDTH 12 0
BBX 5 13 5 0
BITMAP
08
38
18
18
18
30
30
30
30
60
60
60
F0
ENDCHAR

STARTCHAR two
ENCODING 50
SWIDTH 620 0
DWIDTH 12 0
BBX 11 14 1 -1
BITMAP
0F80
19C0
30E0
2060
2060
0060
00C0
0180
0300
0C00
1040
2080
FF80
0080
ENDCHAR

STARTCHAR three
ENCODING 51
SWIDTH 620 0
DWIDTH 12 0
BBX 11 13 1 0
BITMAP
0FC0
18E0
1060
0060
00C0
0780
0180
00C0
00C0
00C0
8180
C380
7E00
ENDCHAR

STARTCHAR four
ENCODING 52
SWIDTH 620 0
DWIDTH 12 0
BBX 10 13 2 0
BITMAP
0180
0380
0580
0980
1180
2300
4300
8300
FFC0
0600
0600
0600
0600
ENDCHAR

STARTCHAR five
ENCODING 53
SWIDTH 620 0
DWIDTH 12 0
BBX 10 14 2 0
BITMAP
0040
3FC0
3F80
2000
2000
7E00
4700
0180
0180
0180
0180
8300
C600
7C00
ENDCHAR

STARTCHAR six
ENCODING 54
SWIDTH 620 0
DWIDTH 12 0
BBX 11 13 2 0
BITMAP
03E0
1E00
3000
6000
6F00
F180
E0C0
C0C0
C0C0
C0C0
C180
6300
3E00
ENDCHAR

STARTCHAR seven
ENCODING 55
SWIDTH 620 0
DWIDTH 12 0
BBX 11 14 3 0
BITMAP
2000
7FE0
7FC0
8080
0100
0200
0600
0C00
0800
1800
3000
3000
6000
6000
ENDCHAR

STARTCHAR eight
ENCODING 56
SWIDTH 620 0
DWIDTH 12 0
BBX 10 13 2 0
BITMAP
0F00
1980
30C0
30C0
3180
1F00
3E00
6300
C180
C180
C180
6300
3E00
ENDCHAR

STARTCHAR nine
ENCODING 57
SWIDTH 620 0
DWIDTH 12 0
BBX 11 13 2 0
BITMAP
0F80
18C0
3060
6060
6060
6060
60E0
31E0
1EC0
00C0
0180
0F00
F800
ENDCHAR

STARTCHAR colon
ENCODING 58
SWIDTH 300 0
DWIDTH 6 0
BBX 4 9 2 0
BITMAP
30
30
00
00
00
00
00
C0
C0
ENDCHAR

STARTCHAR semicolon
ENCODING 59
SWIDTH 300 0
DWIDTH 6 0
BBX 6 12 0 -3
BITMAP
0C
0C
00
00
00
00
00
30
30
20
40
80
ENDCHAR

STARTCHAR less
ENCODING 60
SWIDTH 600 0
DWIDTH 11 0
BBX 8 8 3 2
BITMAP
01
0F
38
E0
C0
38
0E
03
ENDCHAR

STARTCHAR equal
ENCODING 61
SWIDTH 600 0
DWIDTH 11 0
BBX 9 4 2 4
BITMAP
FF80
0000
0000
FF80
ENDCHAR

STARTCHAR greater
ENCODING 62
SWIDTH 600 0
DWIDTH 11 0
BBX 8 8 3 2
BITMAP
80
F0
1C
07
03
1C
70
C0
ENDCHAR

STARTCHAR question
ENCODING 63
SWIDTH 540 0
DWIDTH 10 0
BBX 9 13 3 0
BITMAP
7E00
E700
C380
8180
0180
0380
0700
7C00
4000
4000
0000
C000
C000
ENDCHAR

STARTCHAR at
ENCODING 64
SWIDTH 780 0
DWIDTH 16 0
BBX 16 18 0 -5
BITMAP
03F0
0C0C
1002
2002
40D1
4131
8231
8621
8421
8C62
8CC2
8DCC
4670
4001
2002
1004
0C18
03E0
ENDCHAR

STARTCHAR A
ENCODING 65
SWIDTH 700 0
DWIDTH 13 0
BBX 13 13 0 0
BITMAP
00C0
00C0
01C0
0160
0260
0460
0460
0FE0
1830
1030
2030
6030
F078
ENDCHAR

STARTCHAR B
ENCODING 66
SWIDTH 720 0
DWIDTH 14 0
BBX 13 13 2 0
BITMAP
3FE0
1830
1818
1818
3018
3070
3F80
3060
3030
6030
6030
6060
FFC0
ENDCHAR

STARTCHAR C
ENCODING 67
SWIDTH 720 0
DWIDTH 14 0
BBX 13 13 2 0
BITMAP
07E8
1838
3018
6008
6000
C000
C000
C000
C000
C010
C020
60C0
3F00
ENDCHAR

STARTCHAR D
ENCODING 68
SWIDTH 740 0
DWIDTH 14 0
BBX 13 13 2 0
BITMAP
3FC0
1870
1830
1818
3018
3018
3018
3018
3030
6030
6060
61C0
FF00
ENDCHAR

STARTCHAR E
ENCODING 69
SWIDTH 680 0
DWIDTH 13 0
BBX 12 13 2 0
BITMAP
3FE0
1870
1830
1810
3080
3180
3F00
3100
3100
6020
6060
60E0
FFC0
ENDCHAR

STARTCHAR F
ENCODING 70
SWIDTH 620 0
DWIDTH 12 0
BBX 12 13 2 0
BITMAP
3FE0
1870
1830
1810
3080
3180
3F00
3100
3100
6000
6000
6000
F000
ENDCHAR

STARTCHAR G
ENCODING 71
SWIDTH 760 0
DWIDTH 14 0
BBX 14 13 2 0
BITMAP
07E8
1838
3018
6008
6000
C000
C0FC
C030
C030
C030
C060
60E0
3F20
ENDCHAR

STARTCHAR H
ENCODING 72
SWIDTH 800 0
DWIDTH 15 0
BBX 14 13 2 0
BITMAP
3C3C
1818
1818
1818
3030
3030
3FF0
3030
3030
6060
6060
6060
F0F0
ENDCHAR

STARTCHAR I
ENCODING 73
SWIDTH 320 0
DWIDTH 6 0
BBX 6 13 2 0
BITMAP
3C
18
18
18
30
30
30
30
30
60
60
60
F0
ENDCHAR

STARTCHAR J
ENCODING 74
SWIDTH 560 0
DWIDTH 11 0
BBX 12 13 0 0
BITMAP
00F0
0060
0060
0060
0060
00C0
00C0
00C0
40C0
C180
C180
6300
3C00
ENDCHAR

STARTCHAR K
ENCODING 75
SWIDTH 720 0
DWIDTH 14 0
BBX 14 13 2 0
BITMAP
3C7C
1830
1860
1880
1B00
3600
3F00
3300
3180
6180
60C0
60C0
F1F0
ENDCHAR

STARTCHAR L
ENCODING 76
SWIDTH 580 0
DWIDTH 11 0
BBX 9 13 2 0
BITMAP
3C00
1800
1800
1800
3000
3000
3000
3000
3000
6080
6180
6380
FF00
ENDCHAR

STARTCHAR M
ENCODING 77
SWIDTH 860 0
DWIDTH 16 0
BBX 16 13 2 0
BITMAP
3C0F
1C0E
1C16
1C16
362C
264C
264C
268C
268C
6318
4318
4318
E23C
ENDCHAR

STARTCHAR N
ENCODING 78
SWIDTH 720 0
DWIDTH 14 0
BBX 13 13 2 0
BITMAP
3C38
1C10
1C10
1610
3630
2320
2320
2320
21A0
61C0
40C0
40C0
E040
ENDCHAR

STARTCHAR O
ENCODING 79
SWIDTH 760 0
DWIDTH 14 0
BBX 13 13 2 0
BITMAP
07C0
1C70
3030
6018
6018
C018
C018
C018
C030
C030
6060
71C0
1F00
ENDCHAR

STARTCHAR P
ENCODING 80
SWIDTH 600 0
DWIDTH 11 0
BBX 12 13 1 0
BITMAP
3FC0
1860
1830
1830
3030
3060
3FC0
3000
3000
6000
6000
6000
F000
ENDCHAR

STARTCHAR Q
ENCODING 81
SWIDTH 780 0
DWIDTH 15 0
BBX 13 17 3 -4
BITMAP
07C0
1C70
3030
6018
6018
C018
C018
C018
C030
C030
6060
71C0
1F00
0E00
0C00
0C40
0780
ENDCHAR

STARTCHAR R
ENCODING 82
SWIDTH 700 0
DWIDTH 13 0
BBX 13 13 1 0
BITMAP
3FE0
1830
1818
1818
3018
3030
3FE0
3300
3180
6180
60C0
60E0
F070
ENDCHAR

STARTCHAR S
ENCODING 83
SWIDTH 640 0
DWIDTH 12 0
BBX 11 13 2 0
BITMAP
1FA0
30E0
6060
6020
7000
3C00
0F00
0380
01C0
80C0
C0C0
E180
BF00
ENDCHAR

STARTCHAR T
ENCODING 84
SWIDTH 600 0
DWIDTH 11 0
BBX 12 14 2 0
BITMAP
4020
7FE0
C630
8610
8610
0C00
0C00
0C00
0C00
0C00
1800
1800
1800
3C00
ENDCHAR

STARTCHAR U
ENCODING 85
SWIDTH 720 0
DWIDTH 14 0
BBX 14 13 3 0
BITMAP
783C
3018
3010
6010
6030
6020
6020
C060
C040
C040
C080
6180
3E00
ENDCHAR

STARTCHAR V
ENCODING 86
SWIDTH 680 0
DWIDTH 13 0
BBX 13 13 3 0
BITMAP
F078
6030
6020
6040
60C0
3080
3100
3300
3200
3400
1C00
1800
1800
ENDCHAR

STARTCHAR W
ENCODING 87
SWIDTH 960 0
DWIDTH 18 0
BBX 18 13 3 0
BITMAP
F1E3C0
60C180
60C100
60C200
61C600
31C400
33C800
32D800
34D000
34E000
18E000
18C000
18C000
ENDCHAR

STARTCHAR X
ENCODING 88
SWIDTH 700 0
DWIDTH 13 0
BBX 15 13 0 0
BITMAP
1E1E
0C0C
0610
0620
0340
0180
0180
02C0
04C0
0860
1060
3030
F878
ENDCHAR

STARTCHAR Y
ENCODING 89
SWIDTH 660 0
DWIDTH 13 0
BBX 12 13 3 0
BITMAP
F0F0
6060
6040
3080
3100
1A00
1E00
0C00
0C00
1800
1800
1800
3C00
ENDCHAR

STARTCHAR Z
ENCODING 90
SWIDTH 580 0
DWIDTH 11 0
BBX 13 13 0 0
BITMAP
1FF8
3818
3030
2060
00C0
0180
0300
0600
0C00
1820
3060
60E0
FFC0
ENDCHAR

STARTCHAR bracketleft
ENCODING 91
SWIDTH 260 0
DWIDTH 5 0
BBX 6 18 1 -4
BITMAP
1C
18
18
18
30
30
30
30
30
30
60
60
60
60
C0
C0
C0
E0
ENDCHAR

STARTCHAR backslash
ENCODING 92
SWIDTH 600 0
DWIDTH 11 0
BBX 11 18 0 -4
BITMAP
C000
4000
6000
2000
3000
1000
1800
0800
0C00
0600
0200
0300
0100
0180
0080
00C0
0040
0060
ENDCHAR

STARTCHAR bracketright
ENCODING 93
SWIDTH 260 0
DWIDTH 5 0
BBX 6 18 0 -4
BITMAP
1C
0C
0C
0C
18
18
18
18
30
30
30
30
30
30
60
60
60
E0
ENDCHAR

STARTCHAR asciicircum
ENCODING 94
SWIDTH 600 0
DWIDTH 11 0
BBX 10 7 2 6
BITMAP
0C00
1E00
1200
3300
2100
6180
C0C0
ENDCHAR

STARTCHAR underscore
ENCODING 95
SWIDTH 500 0
DWIDTH 10 0
BBX 10 1 0 -2
BITMAP
FFC0
ENDCHAR

STARTCHAR quoteleft
ENCODING 96
SWIDTH 280 0
DWIDTH 5 0
BBX 4 5 3 9
BITMAP
10
20
40
C0
C0
ENDCHAR

STARTCHAR a
ENCODING 97
SWIDTH 620 0
DWIDTH 12 0
BBX 11 9 2 0
BITMAP
0F40
30C0
60C0
60C0
C180
C180
C380
E5A0
78C0
ENDCHAR

STARTCHAR b
ENCODING 98
SWIDTH 600 0
DWIDTH 11 0
BBX 10 14 2 0
BITMAP
1000
7000
3000
3000
3000
6F00
7180
60C0
60C0
60C0
C180
C180
E300
DC00
ENDCHAR

STARTCHAR c
ENCODING 99
SWIDTH 480 0
DWIDTH 9 0
BBX 8 9 2 0
BITMAP
1E
33
61
E0
C0
C0
C1
62
3C
ENDCHAR

STARTCHAR d
ENCODING 100
SWIDTH 640 0
DWIDTH 12 0
BBX 11 14 2 0
BITMAP
0020
00E0
0060
0060
0060
0EC0
39C0
60C0
60C0
C180
C180
C180
63A0
3CC0
ENDCHAR

STARTCHAR e
ENCODING 101
SWIDTH 540 0
DWIDTH 10 0
BBX 9 9 2 0
BITMAP
0F00
3180
6180
C300
FC00
C000
C100
6300
3E00
ENDCHAR

STARTCHAR f
ENCODING 102
SWIDTH 340 0
DWIDTH 6 0
BBX 13 18 -2 -4
BITMAP
00F0
0198
0180
0300
0300
0FC0
0300
0300
0300
0600
0600
0600
0600
0C00
0C00
0800
D800
7000
ENDCHAR

STARTCHAR g
ENCODING 103
SWIDTH 560 0
DWIDTH 11 0
BBX 10 13 2 -4
BITMAP
1F40
30C0
60C0
60C0
C0C0
C180
C380
C580
7980
0300
8300
C600
7800
ENDCHAR

STARTCHAR h
ENCODING 104
SWIDTH 620 0
DWIDTH 12 0
BBX 11 14 2 0
BITMAP
1000
7000
3000
3000
3000
6700
7980
7180
6180
6180
C300
C300
C320
C1C0
ENDCHAR

STARTCHAR i
ENCODING 105
SWIDTH 280 0
DWIDTH 5 0
BBX 4 14 2 0
BITMAP
30
30
00
00
00
20
E0
60
60
60
C0
C0
D0
60
ENDCHAR

STARTCHAR j
ENCODING 106
SWIDTH 280 0
DWIDTH 5 0
BBX 9 18 -2 -4
BITMAP
0180
0180
0000
0000
0000
0100
0700
0300
0300
0300
0600
0600
0600
0600
0C00
0C00
D800
7000
ENDCHAR

STARTCHAR k
ENCODING 107
SWIDTH 600 0
DWIDTH 11 0
BBX 10 14 2 0
BITMAP
1000
7000
3000
3000
3000
3380
64C0
6800
7C00
6C00
6600
C600
C340
C180
ENDCHAR

STARTCHAR l
ENCODING 108
SWIDTH 280 0
DWIDTH 5 0
BBX 5 14 2 0
BITMAP
10
70
30
30
30
30
60
60
60
60
C0
C0
C8
70
ENDCHAR

STARTCHAR m
ENCODING 109
SWIDTH 880 0
DWIDTH 17 0
BBX 14 9 3 0
BITMAP
2F70
F398
6318
6318
6318
C630
C630
C634
C618
ENDCHAR

STARTCHAR n
ENCODING 110
SWIDTH 620 0
DWIDTH 12 0
BBX 11 9 2 0
BITMAP
2700
E980
7180
6180
6180
C300
C300
C320
C1C0
ENDCHAR

STARTCHAR o
ENCODING 111
SWIDTH 540 0
DWIDTH 10 0
BBX 9 9 2 0
BITMAP
0E00
3300
6180
C180
C180
C180
C300
6600
3800
ENDCHAR

STARTCHAR p
ENCODING 112
SWIDTH 600 0
DWIDTH 11 0
BBX 12 13 0 -4
BITMAP
0BC0
3C60
1830
1830
1830
3060
3060
38C0
3700
6000
6000
6000
F000
ENDCHAR

STARTCHAR q
ENCODING 113
SWIDTH 560 0
DWIDTH 11 0
BBX 10 13 2 -4
BITMAP
1F40
30C0
60C0
60C0
C180
C180
C380
E580
7980
0300
0300
0300
0780
ENDCHAR

STARTCHAR r
ENCODING 114
SWIDTH 400 0
DWIDTH 8 0
BBX 6 9 3 0
BITMAP
2C
F4
60
60
60
C0
C0
C0
C0
ENDCHAR

STARTCHAR s
ENCODING 115
SWIDTH 540 0
DWIDTH 10 0
BBX 8 9 2 0
BITMAP
3E
63
61
38
1E
07
83
C6
7C
ENDCHAR

STARTCHAR t
ENCODING 116
SWIDTH 340 0
DWIDTH 6 0
BBX 6 12 2 0
BITMAP
10
30
30
FC
60
60
60
C0
C0
C0
C8
70
ENDCHAR

STARTCHAR u
ENCODING 117
SWIDTH 620 0
DWIDTH 12 0
BBX 10 9 3 0
BITMAP
2180
E180
6180
6180
C300
C300
C700
CB40
7180
ENDCHAR

STARTCHAR v
ENCODING 118
SWIDTH 540 0
DWIDTH 10 0
BBX 9 9 2 0
BITMAP
2100
E180
6080
6080
C100
C100
C200
CC00
7000
ENDCHAR

STARTCHAR w
ENCODING 119
SWIDTH 880 0
DWIDTH 16 0
BBX 15 9 2 0
BITMAP
2184
E186
6182
6182
C304
C304
C708
CB30
71C0
ENDCHAR

STARTCHAR x
ENCODING 120
SWIDTH 540 0
DWIDTH 10 0
BBX 11 9 1 0
BITMAP
1060
3980
1A00
0E00
0C00
1600
3600
A340
C380
ENDCHAR

STARTCHAR y
ENCODING 121
SWIDTH 600 0
DWIDTH 11 0
BBX 10 13 1 -4
BITMAP
10C0
70C0
30C0
30C0
3180
6180
6180
6380
3D80
0100
8300
C600
7C00
ENDCHAR

STARTCHAR z
ENCODING 122
SWIDTH 520 0
DWIDTH 10 0
BBX 10 9 1 0
BITMAP
3FC0
6180
4300
0600
0C00
1800
3080
6180
FF00
ENDCHAR

STARTCHAR braceleft
ENCODING 123
SWIDTH 360 0
DWIDTH 7 0
BBX 5 18 1 -4
BITMAP
08
10
30
30
30
30
30
20
C0
20
60
60
60
60
60
60
20
10
ENDCHAR

STARTCHAR bar
ENCODING 124
SWIDTH 600 0
DWIDTH 11 0
BBX 2 18 6 -4
BITMAP
C0
C0
C0
C0
C0
C0
C0
C0
C0
C0
C0
C0
C0
C0
C0
C0
C0
C0
ENDCHAR

STARTCHAR braceright
ENCODING 125
SWIDTH 380 0
DWIDTH 7 0
BBX 5 18 1 -4
BITMAP
40
20
30
30
30
30
30
30
20
18
20
60
60
60
60
60
40
80
ENDCHAR

STARTCHAR asciitilde
ENCODING 126
SWIDTH 600 0
DWIDTH 11 0
BBX 8 2 3 5
BITMAP
71
8E
ENDCHAR

STARTCHAR space
ENCODING 160
SWIDTH 300 0
DWIDTH 7 0
BBX 0 0 0 0
BITMAP
ENDCHAR

STARTCHAR exclamdown
ENCODING 161
SWIDTH 320 0
DWIDTH 6 0
BBX 4 13 2 -4
BITMAP
30
30
00
20
20
60
60
40
40
C0
C0
C0
C0
ENDCHAR

STARTCHAR cent
ENCODING 162
SWIDTH 620 0
DWIDTH 12 0
BBX 9 13 3 0
BITMAP
0200
0400
1E00
3580
6580
C800
C800
C800
C900
7300
3C00
1000
1000
ENDCHAR

STARTCHAR sterling
ENCODING 163
SWIDTH 620 0
DWIDTH 12 0
BBX 12 13 1 0
BITMAP
03E0
0610
0C10
0C00
0C00
7F80
0400
0400
7410
8C10
8E20
9BE0
71C0
ENDCHAR

STARTCHAR currency
ENCODING 164
SWIDTH 600 0
DWIDTH 11 0
BBX 8 8 3 3
BITMAP
BD
66
C3
81
81
C3
66
BD
ENDCHAR

STARTCHAR yen
ENCODING 165
SWIDTH 620 0
DWIDTH 12 0
BBX 14 13 1 0
BITMAP
7C3C
1810
1820
0860
0CC0
0C80
0500
7FE0
0600
0600
FFE0
0400
1F00
ENDCHAR

STARTCHAR brokenbar
ENCODING 166
SWIDTH 600 0
DWIDTH 11 0
BBX 1 18 7 -4
BITMAP
80
80
80
80
80
80
80
80
80
00
80
80
80
80
80
80
80
80
ENDCHAR

STARTCHAR section
ENCODING 167
SWIDTH 620 0
DWIDTH 12 0
BBX 10 17 2 -4
BITMAP
0F00
10C0
30C0
3000
3800
1F00
2380
4180
4080
6080
3900
1E00
0300
8300
8300
C600
3C00
ENDCHAR

STARTCHAR dieresis
ENCODING 168
SWIDTH 420 0
DWIDTH 8 0
BBX 5 2 4 11
BITMAP
D8
D8
ENDCHAR

STARTCHAR copyright
ENCODING 169
SWIDTH 740 0
DWIDTH 14 0
BBX 13 13 2 0
BITMAP
0F80
3060
27D0
4850
5048
B008
B008
B008
5008
58D0
2720
1040
0F80
ENDCHAR

STARTCHAR ordfeminine
ENCODING 170
SWIDTH 440 0
DWIDTH 8 0
BBX 7 6 3 7
BITMAP
3C
44
C4
8C
9A
64
ENDCHAR

STARTCHAR guillemotleft
ENCODING 171
SWIDTH 300 0
DWIDTH 6 0
BBX 6 7 1 1
BITMAP
6C
D8
90
90
90
90
90
ENDCHAR

STARTCHAR logicalnot
ENCODING 172
SWIDTH 600 0
DWIDTH 11 0
BBX 9 4 2 4
BITMAP
FF80
0080
0080
0080
ENDCHAR

STARTCHAR hyphen
ENCODING 173
SWIDTH 320 0
DWIDTH 6 0
BBX 5 1 2 4
BITMAP
F8
ENDCHAR

STARTCHAR registered
ENCODING 174
SWIDTH 740 0
DWIDTH 14 0
BBX 14 13 2 0
BITMAP
0FC0
1030
3F08
48C8
88C4
8884
8F04
8904
4884
5CE8
2010
1860
0780
ENDCHAR

STARTCHAR macron
ENCODING 175
SWIDTH 440 0
DWIDTH 8 0
BBX 6 1 4 11
BITMAP
FC
ENDCHAR

STARTCHAR degree
ENCODING 176
SWIDTH 400 0
DWIDTH 8 0
BBX 5 5 4 8
BITMAP
70
88
88
88
70
ENDCHAR

STARTCHAR plusminus
ENCODING 177
SWIDTH 600 0
DWIDTH 11 0
BBX 9 11 3 1
BITMAP
0800
0800
0800
0800
FF80
0800
0800
0800
0800
0000
FF80
ENDCHAR

STARTCHAR twosuperior
ENCODING 178
SWIDTH 372 0
DWIDTH 7 0
BBX 7 7 2 6
BITMAP
1C
62
42
04
18
22
FC
ENDCHAR

STARTCHAR threesuperior
ENCODING 179
SWIDTH 372 0
DWIDTH 7 0
BBX 7 7 2 6
BITMAP
1C
22
06
18
04
8C
70
ENDCHAR

STARTCHAR acute
ENCODING 180
SWIDTH 320 0
DWIDTH 6 0
BBX 4 3 4 10
BITMAP
30
60
C0
ENDCHAR

STARTCHAR mu
ENCODING 181
SWIDTH 620 0
DWIDTH 12 0
BBX 11 12 1 -3
BITMAP
0860
1840
1840
10C0
10C0
3080
3080
33C0
5D80
4000
C000
C000
ENDCHAR

STARTCHAR paragraph
ENCODING 182
SWIDTH 620 0
DWIDTH 12 0
BBX 8 17 3 -4
BITMAP
3F
FA
FA
FA
FA
FA
3A
0A
0A
0A
0A
0A
0A
0A
0A
0A
0A
ENDCHAR

STARTCHAR periodcentered
ENCODING 183
SWIDTH 300 0
DWIDTH 6 0
BBX 2 2 3 5
BITMAP
C0
C0
ENDCHAR

STARTCHAR cedilla
ENCODING 184
SWIDTH 320 0
DWIDTH 6 0
BBX 3 4 1 -4
BITMAP
40
E0
20
C0
ENDCHAR

STARTCHAR onesuperior
ENCODING 185
SWIDTH 372 0
DWIDTH 7 0
BBX 4 7 3 6
BITMAP
70
30
20
20
20
40
F0
ENDCHAR

STARTCHAR ordmasculine
ENCODING 186
SWIDTH 400 0
DWIDTH 8 0
BBX 6 6 3 7
BITMAP
38
44
84
84
88
70
ENDCHAR

STARTCHAR guillemotright
ENCODING 187
SWIDTH 300 0
DWIDTH 6 0
BBX 6 6 0 2
BITMAP
24
24
24
24
6C
D8
ENDCHAR

STARTCHAR onequarter
ENCODING 188
SWIDTH 930 0
DWIDTH 18 0
BBX 15 13 3 0
BITMAP
1018
7010
2020
2040
4080
4100
E206
040A
0412
0824
107E
2008
6008
ENDCHAR

STARTCHAR onehalf
ENCODING 189
SWIDTH 930 0
DWIDTH 18 0
BBX 15 13 3 0
BITMAP
1018
7010
2020
2040
4080
4100
E23C
0466
0442
0804
1018
2022
60FC
ENDCHAR

STARTCHAR threequarters
ENCODING 190
SWIDTH 930 0
DWIDTH 18 0
BBX 16 13 2 0
BITMAP
1C06
2204
0608
1810
0420
8C40
7883
0105
0109
0212
043F
0804
1804
ENDCHAR

STARTCHAR questiondown
ENCODING 191
SWIDTH 540 0
DWIDTH 10 0
BBX 9 13 2 -4
BITMAP
0180
0180
0000
0100
0100
1E00
3000
6000
C000
C000
C180
6300
3E00
ENDCHAR

STARTCHAR Agrave
ENCODING 192
SWIDTH 700 0
DWIDTH 13 0
BBX 13 17 0 0
BITMAP
0300
0180
00C0
0000
00C0
00C0
01C0
0160
0260
0460
0460
0FE0
1830
1030
2030
6030
F078
ENDCHAR

STARTCHAR Aacute
ENCODING 193
SWIDTH 700 0
DWIDTH 13 0
BBX 13 17 0 0
BITMAP
0030
0060
00C0
0000
00C0
00C0
01C0
0160
0260
0460
0460
0FE0
1830
1030
2030
6030
F078
ENDCHAR

STARTCHAR Acircumflex
ENCODING 194
SWIDTH 700 0
DWIDTH 13 0
BBX 13 17 0 0
BITMAP
00E0
01B0
0318
0000
00C0
00C0
01C0
0160
0260
0460
0460
0FE0
1830
1030
2030
6030
F078
ENDCHAR

STARTCHAR Atilde
ENCODING 195
SWIDTH 700 0
DWIDTH 13 0
BBX 13 17 0 0
BITMAP
0190
03F0
0260
0000
00C0
00C0
01C0
0160
0260
0460
0460
0FE0
1830
1030
2030
6030
F078
ENDCHAR

STARTCHAR Adieresis
ENCODING 196
SWIDTH 700 0
DWIDTH 13 0
BBX 13 16 0 0
BITMAP
0330
0330
0000
00C0
00C0
01C0
0160
0260
0460
0460
0FE0
1830
1030
2030
6030
F078
ENDCHAR

STARTCHAR Aring
ENCODING 197
SWIDTH 700 0
DWIDTH 13 0
BBX 13 16 0 0
BITMAP
00C0
0120
0120
00C0
00C0
01C0
0160
0260
0460
0460
0FE0
1830
1030
2030
6030
F078
ENDCHAR

STARTCHAR AE
ENCODING 198
SWIDTH 1220 0
DWIDTH 23 0
BBX 24 13 0 0
BITMAP
007FFE
003307
006303
00C301
008608
018618
03FFF8
060610
0C0610
080C02
100C06
300C0E
F81FFC
ENDCHAR

STARTCHAR Ccedilla
ENCODING 199
SWIDTH 720 0
DWIDTH 14 0
BBX 13 17 2 -4
BITMAP
07E8
1838
3018
6008
6000
C000
C000
C000
C000
C010
C020
60C0
3F00
0400
0200
0200
0C00
ENDCHAR

STARTCHAR Egrave
ENCODING 200
SWIDTH 680 0
DWIDTH 13 0
BBX 12 17 2 0
BITMAP
0600
0300
0180
0000
3FE0
1870
1830
1810
3080
3180
3F00
3100
3100
6020
6060
60E0
FFC0
ENDCHAR

STARTCHAR Eacute
ENCODING 201
SWIDTH 680 0
DWIDTH 13 0
BBX 12 17 2 0
BITMAP
00C0
0180
0300
0000
3FE0
1870
1830
1810
3080
3180
3F00
3100
3100
6020
6060
60E0
FFC0
ENDCHAR

STARTCHAR Ecircumflex
ENCODING 202
SWIDTH 680 0
DWIDTH 13 0
BBX 12 17 2 0
BITMAP
0380
06C0
0C60
0000
3FE0
1870
1830
1810
3080
3180
3F00
3100
3100
6020
6060
60E0
FFC0
ENDCHAR

STARTCHAR Edieresis
ENCODING 203
SWIDTH 680 0
DWIDTH 13 0
BBX 12 16 2 0
BITMAP
0CC0
0CC0
0000
3FE0
1870
1830
1810
3080
3180
3F00
3100
3100
6020
6060
60E0
FFC0
ENDCHAR

STARTCHAR Igrave
ENCODING 204
SWIDTH 320 0
DWIDTH 6 0
BBX 6 17 2 0
BITMAP
60
30
18
00
3C
18
18
18
30
30
30
30
30
60
60
60
F0
ENDCHAR

STARTCHAR Iacute
ENCODING 205
SWIDTH 320 0
DWIDTH 6 0
BBX 7 17 2 0
BITMAP
06
0C
18
00
3C
18
18
18
30
30
30
30
30
60
60
60
F0
ENDCHAR

STARTCHAR Icircumflex
ENCODING 206
SWIDTH 320 0
DWIDTH 6 0
BBX 7 17 2 0
BITMAP
0C
1C
36
00
3C
18
18
18
30
30
30
30
30
60
60
60
F0
ENDCHAR

STARTCHAR Idieresis
ENCODING 207
SWIDTH 320 0
DWIDTH 6 0
BBX 7 16 2 0
BITMAP
36
36
00
3C
18
18
18
30
30
30
30
30
60
60
60
F0
ENDCHAR

STARTCHAR Gbreve
ENCODING 208
SWIDTH 760 0
DWIDTH 14 0
BBX 14 16 2 0
BITMAP
0630
03E0
0000
07E8
1838
3018
6008
6000
C000
C0FC
C030
C030
C030
C060
60E0
3F20
ENDCHAR

STARTCHAR Ntilde
ENCODING 209
SWIDTH 720 0
DWIDTH 14 0
BBX 13 17 2 0
BITMAP
0320
07E0
04C0
0000
3C38
1C10
1C10
1610
3630
2320
2320
2320
21A0
61C0
40C0
40C0
E040
ENDCHAR

STARTCHAR Ograve
ENCODING 210
SWIDTH 760 0
DWIDTH 14 0
BBX 13 17 2 0
BITMAP
0300
0180
00C0
0000
07C0
1C70
3030
6018
6018
C018
C018
C018
C030
C030
6060
71C0
1F00
ENDCHAR

STARTCHAR Oacute
ENCODING 211
SWIDTH 760 0
DWIDTH 14 0
BBX 13 17 2 0
BITMAP
0060
00C0
0180
0000
07C0
1C70
3030
6018
6018
C018
C018
C018
C030
C030
6060
71C0
1F00
ENDCHAR

STARTCHAR Ocircumflex
ENCODING 212
SWIDTH 760 0
DWIDTH 14 0
BBX 13 17 2 0
BITMAP
00C0
01E0
0330
0000
07C0
1C70
3030
6018
6018
C018
C018
C018
C030
C030
6060
71C0
1F00
ENDCHAR

STARTCHAR Otilde
ENCODING 213
SWIDTH 760 0
DWIDTH 14 0
BBX 13 17 2 0
BITMAP
0320
07E0
04C0
0000
07C0
1C70
3030
6018
6018
C018
C018
C018
C030
C030
6060
71C0
1F00
ENDCHAR

STARTCHAR Odieresis
ENCODING 214
SWIDTH 760 0
DWIDTH 14 0
BBX 13 16 2 0
BITMAP
0360
0360
0000
07C0
1C70
3030
6018
6018
C018
C018
C018
C030
C030
6060
71C0
1F00
ENDCHAR

STARTCHAR multiply
ENCODING 215
SWIDTH 600 0
DWIDTH 11 0
BBX 8 7 3 3
BITMAP
C3
66
3C
18
3C
66
C3
ENDCHAR

STARTCHAR Oslash
ENCODING 216
SWIDTH 760 0
DWIDTH 14 0
BBX 15 13 1 0
BITMAP
03E2
0E34
1818
303C
306C
608C
610C
620C
6C18
7818
3030
58E0
8F80
ENDCHAR

STARTCHAR Ugrave
ENCODING 217
SWIDTH 720 0
DWIDTH 14 0
BBX 14 17 3 0
BITMAP
0300
0180
00C0
0000
783C
3018
3010
6010
6030
6020
6020
C060
C040
C040
C080
6180
3E00
ENDCHAR

STARTCHAR Uacute
ENCODING 218
SWIDTH 720 0
DWIDTH 14 0
BBX 14 17 3 0
BITMAP
00C0
0180
0300
0000
783C
3018
3010
6010
6030
6020
6020
C060
C040
C040
C080
6180
3E00
ENDCHAR

STARTCHAR Ucircumflex
ENCODING 219
SWIDTH 720 0
DWIDTH 14 0
BBX 14 17 3 0
BITMAP
01C0
0360
0630
0000
783C
3018
3010
6010
6030
6020
6020
C060
C040
C040
C080
6180
3E00
ENDCHAR

STARTCHAR Udieresis
ENCODING 220
SWIDTH 720 0
DWIDTH 14 0
BBX 14 16 3 0
BITMAP
0330
0330
0000
783C
3018
3010
6010
6030
6020
6020
C060
C040
C040
C080
6180
3E00
ENDCHAR

STARTCHAR Idotaccent
ENCODING 221
SWIDTH 320 0
DWIDTH 6 0
BBX 6 16 2 0
BITMAP
18
18
00
3C
18
18
18
30
30
30
30
30
60
60
60
F0
ENDCHAR

STARTCHAR Scedilla
ENCODING 222
SWIDTH 640 0
DWIDTH 12 0
BBX 11 17 2 -4
BITMAP
1FA0
30E0
6060
6020
7000
3C00
0F00
0380
01C0
80C0
C0C0
E180
BF00
0800
0400
0400
3800
ENDCHAR

STARTCHAR germandbls
ENCODING 223
SWIDTH 620 0
DWIDTH 12 0
BBX 14 17 -2 -3
BITMAP
00F8
018C
018C
031C
0360
0F40
0360
0630
061C
060C
060C
0D0C
0D98
0CF0
1800
D800
F000
ENDCHAR

STARTCHAR agrave
ENCODING 224
SWIDTH 620 0
DWIDTH 12 0
BBX 11 13 2 0
BITMAP
0C00
0600
0300
0000
0F40
30C0
60C0
60C0
C180
C180
C380
E5A0
78C0
ENDCHAR

STARTCHAR aacute
ENCODING 225
SWIDTH 620 0
DWIDTH 12 0
BBX 11 13 2 0
BITMAP
0180
0300
0600
0000
0F40
30C0
60C0
60C0
C180
C180
C380
E5A0
78C0
ENDCHAR

STARTCHAR acircumflex
ENCODING 226
SWIDTH 620 0
DWIDTH 12 0
BBX 11 13 2 0
BITMAP
0700
0D80
18C0
0000
0F40
30C0
60C0
60C0
C180
C180
C380
E5A0
78C0
ENDCHAR

STARTCHAR atilde
ENCODING 227
SWIDTH 620 0
DWIDTH 12 0
BBX 11 13 2 0
BITMAP
0C80
1F80
1300
0000
0F40
30C0
60C0
60C0
C180
C180
C380
E5A0
78C0
ENDCHAR

STARTCHAR adieresis
ENCODING 228
SWIDTH 620 0
DWIDTH 12 0
BBX 11 12 2 0
BITMAP
0CC0
0CC0
0000
0F40
30C0
60C0
60C0
C180
C180
C380
E5A0
78C0
ENDCHAR

STARTCHAR aring
ENCODING 229
SWIDTH 620 0
DWIDTH 12 0
BBX 11 14 2 0
BITMAP
0300
0480
0480
0300
0000
0F40
30C0
60C0
60C0
C180
C180
C380
E5A0
78C0
ENDCHAR

STARTCHAR ae
ENCODING 230
SWIDTH 880 0
DWIDTH 16 0
BBX 16 9 1 0
BITMAP
1F1E
31E3
20C3
01C6
3EF8
6180
C182
C6C6
7878
ENDCHAR

STARTCHAR ccedilla
ENCODING 231
SWIDTH 480 0
DWIDTH 9 0
BBX 8 13 2 -4
BITMAP
1E
33
61
E0
C0
C0
C1
62
3C
10
08
08
70
ENDCHAR

STARTCHAR egrave
ENCODING 232
SWIDTH 540 0
DWIDTH 10 0
BBX 9 13 2 0
BITMAP
0C00
0600
0300
0000
0F00
3180
6180
C300
FC00
C000
C100
6300
3E00
ENDCHAR

STARTCHAR eacute
ENCODING 233
SWIDTH 540 0
DWIDTH 10 0
BBX 9 13 2 0
BITMAP
0180
0300
0600
0000
0F00
3180
6180
C300
FC00
C000
C100
6300
3E00
ENDCHAR

STARTCHAR ecircumflex
ENCODING 234
SWIDTH 540 0
DWIDTH 10 0
BBX 10 13 2 0
BITMAP
0300
0780
0CC0
0000
0F00
3180
6180
C300
FC00
C000
C100
6300
3E00
ENDCHAR

STARTCHAR edieresis
ENCODING 235
SWIDTH 540 0
DWIDTH 10 0
BBX 10 12 1 0
BITMAP
06C0
06C0
0000
0F80
30C0
60C0
C180
FE00
C000
C080
6180
3F00
ENDCHAR

STARTCHAR igrave
ENCODING 236
SWIDTH 280 0
DWIDTH 5 0
BBX 4 13 2 0
BITMAP
C0
60
30
00
20
E0
60
60
60
C0
C0
D0
60
ENDCHAR

STARTCHAR iacute
ENCODING 237
SWIDTH 280 0
DWIDTH 5 0
BBX 5 13 2 0
BITMAP
18
30
60
00
20
E0
60
60
60
C0
C0
D0
60
ENDCHAR

STARTCHAR icircumflex
ENCODING 238
SWIDTH 280 0
DWIDTH 5 0
BBX 6 13 2 0
BITMAP
30
78
CC
00
20
E0
60
60
60
C0
C0
D0
60
ENDCHAR

STARTCHAR idieresis
ENCODING 239
SWIDTH 280 0
DWIDTH 5 0
BBX 5 12 2 0
BITMAP
D8
D8
00
20
E0
60
60
60
C0
C0
D0
60
ENDCHAR

STARTCHAR gbreve
ENCODING 240
SWIDTH 560 0
DWIDTH 11 0
BBX 10 16 2 -4
BITMAP
0CC0
0780
0000
1F40
30C0
60C0
60C0
C0C0
C180
C380
C580
7980
0300
8300
C600
7800
ENDCHAR

STARTCHAR ntilde
ENCODING 241
SWIDTH 620 0
DWIDTH 12 0
BBX 11 13 2 0
BITMAP
0C80
1F80
1300
0000
2700
E980
7180
6180
6180
C300
C300
C320
C1C0
ENDCHAR

STARTCHAR ograve
ENCODING 242
SWIDTH 540 0
DWIDTH 10 0
BBX 9 13 2 0
BITMAP
0C00
0600
0300
0000
0E00
3300
6180
C180
C180
C180
C300
6600
3800
ENDCHAR

STARTCHAR oacute
ENCODING 243
SWIDTH 540 0
DWIDTH 10 0
BBX 9 13 2 0
BITMAP
0300
0600
0C00
0000
0E00
3300
6180
C180
C180
C180
C300
6600
3800
ENDCHAR

STARTCHAR ocircumflex
ENCODING 244
SWIDTH 540 0
DWIDTH 10 0
BBX 9 13 2 0
BITMAP
0600
0F00
1980
0000
0E00
3300
6180
C180
C180
C180
C300
6600
3800
ENDCHAR

STARTCHAR otilde
ENCODING 245
SWIDTH 540 0
DWIDTH 10 0
BBX 9 13 2 0
BITMAP
0C80
1F80
1300
0000
0E00
3300
6180
C180
C180
C180
C300
6600
3800
ENDCHAR

STARTCHAR odieresis
ENCODING 246
SWIDTH 540 0
DWIDTH 10 0
BBX 9 12 2 0
BITMAP
0D80
0D80
0000
0E00
3300
6180
C180
C180
C180
C300
6600
3800
ENDCHAR

STARTCHAR divide
ENCODING 247
SWIDTH 600 0
DWIDTH 11 0
BBX 10 8 2 2
BITMAP
0C00
0C00
0000
FFC0
0000
0000
0C00
0C00
ENDCHAR

STARTCHAR oslash
ENCODING 248
SWIDTH 540 0
DWIDTH 10 0
BBX 11 9 1 0
BITMAP
0720
18C0
31C0
62C0
64C0
68C0
3180
6300
9C00
ENDCHAR

STARTCHAR ugrave
ENCODING 249
SWIDTH 620 0
DWIDTH 12 0
BBX 10 13 3 0
BITMAP
3000
1800
0C00
0000
2180
E180
6180
6180
C300
C300
C700
CB40
7180
ENDCHAR

STARTCHAR uacute
ENCODING 250
SWIDTH 620 0
DWIDTH 12 0
BBX 10 13 3 0
BITMAP
0300
0600
0C00
0000
2180
E180
6180
6180
C300
C300
C700
CB40
7180
ENDCHAR

STARTCHAR ucircumflex
ENCODING 251
SWIDTH 620 0
DWIDTH 12 0
BBX 10 13 3 0
BITMAP
0C00
1E00
3300
0000
2180
E180
6180
6180
C300
C300
C700
CB40
7180
ENDCHAR

STARTCHAR udieresis
ENCODING 252
SWIDTH 620 0
DWIDTH 12 0
BBX 10 12 3 0
BITMAP
1980
1980
0000
2180
E180
6180
6180
C300
C300
C700
CB40
7180
ENDCHAR

STARTCHAR dotlessi
ENCODING 253
SWIDTH 280 0
DWIDTH 5 0
BBX 4 9 2 0
BITMAP
20
E0
60
60
60
C0
C0
D0
60
ENDCHAR

STARTCHAR scedilla
ENCODING 254
SWIDTH 540 0
DWIDTH 10 0
BBX 8 13 2 -4
BITMAP
3E
63
61
38
1E
07
83
C6
7C
18
04
04
38
ENDCHAR

STARTCHAR ydieresis
ENCODING 255
SWIDTH 600 0
DWIDTH 11 0
BBX 10 16 1 -4
BITMAP
0CC0
0CC0
0000
10C0
70C0
30C0
30C0
3180
6180
6180
6380
3D80
0100
8300
C600
7C00
ENDCHAR
ENDFONT
